HIERARCHY
ROOT Hips
{
	OFFSET 0.000000 97.167313 0.000000
	CHANNELS 6 Xposition Yposition Zposition Xrotation Yrotation Zrotation
	JOINT Spine
	{
		OFFSET 0.000000 13.784798 0.064400
		CHANNELS 3 Xrotation Yrotation Zrotation
		JOINT Spine1
		{
			OFFSET 0.000000 12.037903 0.404700
			CHANNELS 3 Xrotation Yrotation Zrotation
			JOINT Spine2
			{
				OFFSET 0.000000 17.795601 0.420200
				CHANNELS 3 Xrotation Yrotation Zrotation
				JOINT Neck
				{
					OFFSET 0.000000 39.131302 11.954600
					CHANNELS 3 Xrotation Yrotation Zrotation
					JOINT Head
					{
						OFFSET 0.000000 14.456192 15.627699
						CHANNELS 3 Xrotation Yrotation Zrotation
						JOINT HeadTop_End
						{
							OFFSET 0.000000 15.703506 7.603401
							CHANNELS 3 Xrotation Yrotation Zrotation
							End Site
							{
								OFFSET 0.000000 17.447403 0.000000
							}
						}
					}
				}
				JOINT LeftShoulder
				{
					OFFSET 17.399500 24.608795 1.168800
					CHANNELS 3 Xrotation Yrotation Zrotation
					JOINT LeftArm
					{
						OFFSET 18.980635 5.765305 1.818600
						CHANNELS 3 Xrotation Yrotation Zrotation
						JOINT LeftForeArm
						{
							OFFSET 49.290169 0.000000 0.000000
							CHANNELS 3 Xrotation Yrotation Zrotation
							JOINT LeftHand
							{
								OFFSET 31.562012 0.000000 0.000000
								CHANNELS 3 Xrotation Yrotation Zrotation
								JOINT LeftHandThumb1
								{
									OFFSET 6.133995 -4.388519 7.076070
									CHANNELS 3 Xrotation Yrotation Zrotation
									JOINT LeftHandThumb2
									{
										OFFSET 6.037666 -3.485840 3.485847
										CHANNELS 3 Xrotation Yrotation Zrotation
										JOINT LeftHandThumb3
										{
											OFFSET 6.496506 -3.750763 3.750761
											CHANNELS 3 Xrotation Yrotation Zrotation
											JOINT LeftHandThumb4
											{
												OFFSET 5.616882 -3.242905 3.242910
												CHANNELS 3 Xrotation Yrotation Zrotation
												End Site
												{
													OFFSET -1.254608 7.132141 0.375429
												}
											}
										}
									}
								}
								JOINT LeftHandPinky1
								{
									OFFSET 18.920792 -0.453171 -11.426712
									CHANNELS 3 Xrotation Yrotation Zrotation
									JOINT LeftHandPinky2
									{
										OFFSET 4.919586 0.000000 0.000000
										CHANNELS 3 Xrotation Yrotation Zrotation
										JOINT LeftHandPinky3
										{
											OFFSET 5.233047 0.000000 0.000000
											CHANNELS 3 Xrotation Yrotation Zrotation
											JOINT LeftHandPinky4
											{
												OFFSET 5.571716 0.000000 0.000000
												CHANNELS 3 Xrotation Yrotation Zrotation
												End Site
												{
													OFFSET -3.459808 4.342407 -0.466164
												}
											}
										}
									}
								}
								JOINT LeftHandRing1
								{
									OFFSET 22.726120 -0.094986 -6.500475
									CHANNELS 3 Xrotation Yrotation Zrotation
									JOINT LeftHandRing2
									{
										OFFSET 6.408615 0.000000 0.000000
										CHANNELS 3 Xrotation Yrotation Zrotation
										JOINT LeftHandRing3
										{
											OFFSET 6.150223 0.000000 0.000000
											CHANNELS 3 Xrotation Yrotation Zrotation
											JOINT LeftHandRing4
											{
												OFFSET 6.145386 0.000000 0.000000
												CHANNELS 3 Xrotation Yrotation Zrotation
												End Site
												{
													OFFSET -3.671402 4.923981 -0.202372
												}
											}
										}
									}
								}
								JOINT LeftHandMiddle1
								{
									OFFSET 23.373947 0.000000 0.000001
									CHANNELS 3 Xrotation Yrotation Zrotation
									JOINT LeftHandMiddle2
									{
										OFFSET 6.996567 0.000000 0.000000
										CHANNELS 3 Xrotation Yrotation Zrotation
										JOINT LeftHandMiddle3
										{
											OFFSET 7.015945 0.000000 0.000000
											CHANNELS 3 Xrotation Yrotation Zrotation
											JOINT LeftHandMiddle4
											{
												OFFSET 7.721573 0.000000 0.000000
												CHANNELS 3 Xrotation Yrotation Zrotation
												End Site
												{
													OFFSET -4.651108 6.158463 0.251582
												}
											}
										}
									}
								}
								JOINT LeftHandIndex1
								{
									OFFSET 21.310577 -0.490082 6.209344
									CHANNELS 3 Xrotation Yrotation Zrotation
									JOINT LeftHandIndex2
									{
										OFFSET 7.536453 0.000000 0.000000
										CHANNELS 3 Xrotation Yrotation Zrotation
										JOINT LeftHandIndex3
										{
											OFFSET 7.512344 0.000000 0.000000
											CHANNELS 3 Xrotation Yrotation Zrotation
											JOINT LeftHandIndex4
											{
												OFFSET 10.212402 0.000000 0.000001
												CHANNELS 3 Xrotation Yrotation Zrotation
												End Site
												{
													OFFSET -5.180801 8.690506 1.388433
												}
											}
										}
									}
								}
							}
						}
					}
				}
				JOINT RightShoulder
				{
					OFFSET -17.399500 24.608795 1.168800
					CHANNELS 3 Xrotation Yrotation Zrotation
					JOINT RightArm
					{
						OFFSET -18.980635 5.765305 1.818600
						CHANNELS 3 Xrotation Yrotation Zrotation
						JOINT RightForeArm
						{
							OFFSET -49.290169 0.000000 0.000000
							CHANNELS 3 Xrotation Yrotation Zrotation
							JOINT RightHand
							{
								OFFSET -31.562012 0.000000 0.000000
								CHANNELS 3 Xrotation Yrotation Zrotation
								JOINT RightHandThumb1
								{
									OFFSET -6.133995 -4.388519 7.076070
									CHANNELS 3 Xrotation Yrotation Zrotation
									JOINT RightHandThumb2
									{
										OFFSET -6.037666 -3.485840 3.485847
										CHANNELS 3 Xrotation Yrotation Zrotation
										JOINT RightHandThumb3
										{
											OFFSET -6.496506 -3.750763 3.750761
											CHANNELS 3 Xrotation Yrotation Zrotation
											JOINT RightHandThumb4
											{
												OFFSET -5.616882 -3.242905 3.242910
												CHANNELS 3 Xrotation Yrotation Zrotation
												End Site
												{
													OFFSET 1.254608 7.132141 0.375429
												}
											}
										}
									}
								}
								JOINT RightHandIndex1
								{
									OFFSET -21.310577 -0.490082 6.209344
									CHANNELS 3 Xrotation Yrotation Zrotation
									JOINT RightHandIndex2
									{
										OFFSET -7.536453 0.000000 0.000000
										CHANNELS 3 Xrotation Yrotation Zrotation
										JOINT RightHandIndex3
										{
											OFFSET -7.512344 0.000000 0.000000
											CHANNELS 3 Xrotation Yrotation Zrotation
											JOINT RightHandIndex4
											{
												OFFSET -10.212402 0.000000 0.000001
												CHANNELS 3 Xrotation Yrotation Zrotation
												End Site
												{
													OFFSET 5.180801 8.690506 1.388433
												}
											}
										}
									}
								}
								JOINT RightHandMiddle1
								{
									OFFSET -23.373947 0.000000 0.000001
									CHANNELS 3 Xrotation Yrotation Zrotation
									JOINT RightHandMiddle2
									{
										OFFSET -6.996567 0.000000 0.000000
										CHANNELS 3 Xrotation Yrotation Zrotation
										JOINT RightHandMiddle3
										{
											OFFSET -7.015945 0.000000 0.000000
											CHANNELS 3 Xrotation Yrotation Zrotation
											JOINT RightHandMiddle4
											{
												OFFSET -7.721573 0.000000 0.000000
												CHANNELS 3 Xrotation Yrotation Zrotation
												End Site
												{
													OFFSET 4.651108 6.158463 0.251582
												}
											}
										}
									}
								}
								JOINT RightHandRing1
								{
									OFFSET -22.726120 -0.094986 -6.500475
									CHANNELS 3 Xrotation Yrotation Zrotation
									JOINT RightHandRing2
									{
										OFFSET -6.408615 0.000000 0.000000
										CHANNELS 3 Xrotation Yrotation Zrotation
										JOINT RightHandRing3
										{
											OFFSET -6.150223 0.000000 0.000000
											CHANNELS 3 Xrotation Yrotation Zrotation
											JOINT RightHandRing4
											{
												OFFSET -6.145386 0.000000 0.000000
												CHANNELS 3 Xrotation Yrotation Zrotation
												End Site
												{
													OFFSET 3.671402 4.923981 -0.202372
												}
											}
										}
									}
								}
								JOINT RightHandPinky1
								{
									OFFSET -18.920792 -0.453171 -11.426712
									CHANNELS 3 Xrotation Yrotation Zrotation
									JOINT RightHandPinky2
									{
										OFFSET -4.919586 0.000000 0.000000
										CHANNELS 3 Xrotation Yrotation Zrotation
										JOINT RightHandPinky3
										{
											OFFSET -5.233047 0.000000 0.000000
											CHANNELS 3 Xrotation Yrotation Zrotation
											JOINT RightHandPinky4
											{
												OFFSET -5.571716 0.000000 0.000000
												CHANNELS 3 Xrotation Yrotation Zrotation
												End Site
												{
													OFFSET 3.459808 4.342407 -0.466164
												}
											}
										}
									}
								}
							}
						}
					}
				}
			}
		}
	}
	JOINT LeftUpLeg
	{
		OFFSET 19.899099 -7.885101 -3.429500
		CHANNELS 3 Xrotation Yrotation Zrotation
		JOINT LeftLeg
		{
			OFFSET 1.745560 -36.997807 10.304700
			CHANNELS 3 Xrotation Yrotation Zrotation
			JOINT LeftFoot
			{
				OFFSET -1.745558 -29.803308 -13.615400
				CHANNELS 3 Xrotation Yrotation Zrotation
				JOINT LeftToeBase
				{
					OFFSET 1.181900 -18.539904 15.226099
					CHANNELS 3 Xrotation Yrotation Zrotation
					JOINT LeftToe_End
					{
						OFFSET -0.863701 1.402801 16.534700
						CHANNELS 3 Xrotation Yrotation Zrotation
						End Site
						{
							OFFSET 0.000000 16.616566 0.000000
						}
					}
				}
			}
		}
	}
	JOINT RightUpLeg
	{
		OFFSET -19.899099 -7.885101 -3.429500
		CHANNELS 3 Xrotation Yrotation Zrotation
		JOINT RightLeg
		{
			OFFSET -1.745560 -36.997807 10.304700
			CHANNELS 3 Xrotation Yrotation Zrotation
			JOINT RightFoot
			{
				OFFSET 1.745558 -29.803308 -13.615400
				CHANNELS 3 Xrotation Yrotation Zrotation
				JOINT RightToeBase
				{
					OFFSET -1.181900 -18.539904 15.226099
					CHANNELS 3 Xrotation Yrotation Zrotation
					JOINT RightToe_End
					{
						OFFSET 0.863701 1.402801 16.534700
						CHANNELS 3 Xrotation Yrotation Zrotation
						End Site
						{
							OFFSET 0.000000 16.616566 0.000000
						}
					}
				}
			}
		}
	}
}
MOTION
Frames: 4
Frame Time: 0.033333
-0.337452 78.073654 -87.820847 -7.407398 -41.163190 6.342901 5.581813 -0.598698 -2.145941 11.151510 -1.318370 -3.506429 11.151512 -1.318380 -3.506430 11.042652 7.671706 -5.500642 -17.121611 28.141722 -7.260619 0.000001 -0.000000 -0.000000 0.789017 -16.699167 -9.497730 -15.170718 11.400358 -37.285757 5.809196 -32.243233 -0.967112 16.956426 -5.667520 26.608600 5.857492 -1.062771 -6.756324 -0.335409 0.032538 0.783713 0.000003 0.000002 0.000000 0.000000 0.000001 -0.000001 2.403410 14.159769 -33.998247 -2.326947 -3.574674 -28.292846 0.000003 0.000001 0.000001 -0.000003 -0.000000 -0.000001 -0.215768 10.053069 -18.349501 -0.904488 -2.719987 -33.988732 0.000001 -0.000004 -0.000007 -0.000001 -0.000001 0.000007 0.168661 1.114120 -9.034620 -0.457814 -1.637543 -22.512344 0.000006 -0.000003 0.000011 -0.000000 0.000000 0.000008 -0.947486 -9.156696 -5.242720 -0.002909 0.725503 -17.130581 -0.000001 -0.000001 -0.000008 -0.000000 0.000001 -0.000001 -0.745997 21.741380 9.819085 -9.831424 -1.434426 46.308720 18.092879 48.919919 -3.273407 12.006795 -7.130761 -17.530449 -13.615152 5.073981 1.559376 6.423233 -15.872817 -2.789928 0.000007 -0.000002 -0.000005 -0.000000 0.000001 0.000002 -1.076812 -1.821423 -3.018838 0.117111 -1.019398 19.041411 -0.000004 0.000000 0.000007 0.000001 -0.000001 -0.000001 -0.697809 -2.734900 15.033651 -0.233071 0.898917 19.387511 0.000002 -0.000003 -0.000009 -0.000000 0.000000 -0.000004 2.335969 -7.199211 24.051768 -0.490173 2.941026 26.216455 0.000000 -0.000003 0.000006 -0.000000 -0.000000 0.000002 3.371579 -9.829108 26.602241 -0.962760 7.175891 29.832630 0.000003 0.000008 0.000004 0.000002 -0.000001 -0.000001 -30.745817 8.661213 18.350020 30.223590 8.059657 -3.417396 9.159710 -0.180021 -15.428607 0.419062 -0.090400 -1.604793 0.000000 -0.000002 -0.000000 -35.520119 -24.782993 -15.675889 65.711618 1.793490 -18.057231 -33.110394 3.708695 0.389035 0.020858 0.013326 0.015560 -0.000000 0.000001 0.000000 
-0.190437 79.044739 -89.170967 -6.900154 -40.241893 6.568260 5.603419 -0.909592 -2.130971 11.193397 -1.893543 -3.345591 11.193405 -1.893561 -3.345588 10.854327 7.854123 -5.462936 -18.020394 28.758447 -7.158238 -0.000001 -0.000000 -0.000000 0.773664 -17.240162 -9.324743 -16.146424 10.942127 -34.416961 4.932421 -32.424397 -1.891446 15.453863 -5.182667 28.466702 5.409012 -1.927372 -7.006314 -0.335412 0.032543 0.783715 0.000001 0.000002 0.000001 -0.000000 -0.000000 0.000002 2.422739 14.242820 -33.835401 -2.341362 -3.562947 -28.475810 -0.000000 -0.000000 -0.000000 -0.000001 0.000001 -0.000007 -0.249291 10.040092 -17.745450 -0.895162 -2.698654 -33.579116 0.000000 -0.000005 -0.000002 0.000000 0.000000 0.000002 0.162107 1.068096 -8.791598 -0.371982 -1.418544 -20.365143 0.000007 -0.000003 0.000009 0.000001 -0.000000 0.000001 -0.974094 -9.631736 -4.736438 0.042642 0.871323 -15.869031 -0.000002 -0.000001 -0.000006 -0.000000 0.000001 0.000001 -0.718900 21.211287 9.850498 -8.748701 -1.782792 47.212330 18.618783 49.520360 -3.434943 11.838127 -7.434347 -18.099281 -13.950170 5.732012 1.731691 6.445635 -15.919825 -2.790094 0.000009 -0.000005 -0.000006 -0.000001 0.000001 0.000003 -1.081455 -1.898080 -3.943862 0.109592 -1.001999 18.948418 -0.000006 0.000001 0.000010 -0.000000 -0.000001 -0.000001 -0.685561 -2.779996 14.502331 -0.206210 0.817430 18.433649 0.000001 -0.000003 -0.000011 0.000000 0.000002 -0.000006 2.355779 -7.246506 23.522745 -0.454442 2.866272 25.260961 -0.000004 -0.000000 0.000007 0.000000 0.000000 -0.000002 3.398255 -9.879407 26.078791 -0.926735 7.111628 28.873682 0.000002 0.000004 -0.000000 -0.000001 -0.000002 0.000005 -30.762042 9.395008 18.770594 29.093208 7.545629 -3.472299 5.118627 0.408819 -16.757563 0.361802 -0.061441 -1.385491 -0.000000 -0.000002 -0.000000 -35.693800 -25.722069 -14.843693 63.187050 0.983277 -18.097027 -31.113793 4.347634 0.301085 0.021852 0.013981 0.015751 -0.000000 0.000002 0.000000 
0.006027 79.788177 -90.524048 -6.192386 -39.466558 6.885955 5.615559 -1.184624 -2.068624 11.212222 -2.443873 -3.323318 11.212223 -2.443910 -3.323308 10.702237 8.044945 -5.283115 -19.246682 29.332234 -6.738820 -0.000000 -0.000000 -0.000000 0.761298 -17.968387 -9.062755 -17.253200 10.512609 -31.254099 4.216299 -32.334587 -2.543569 14.350629 -4.895056 29.667009 4.959367 -2.791008 -7.264208 -0.335412 0.032543 0.783713 0.000002 0.000005 -0.000001 0.000000 0.000001 -0.000001 2.438285 14.325490 -33.631681 -2.350714 -3.555924 -28.636270 0.000002 -0.000001 -0.000004 0.000000 0.000000 -0.000002 -0.284116 10.026273 -17.101639 -0.881801 -2.675263 -33.101043 0.000001 -0.000006 -0.000002 0.000001 -0.000001 0.000003 0.154828 1.018806 -8.538245 -0.288375 -1.179196 -18.050836 0.000009 -0.000004 0.000007 -0.000000 0.000000 0.000006 -0.989360 -10.124930 -4.184419 0.089724 1.030401 -14.498188 -0.000001 -0.000002 -0.000005 -0.000001 -0.000000 -0.000001 -0.689271 20.581829 9.946238 -7.543919 -2.275509 48.273837 19.019049 50.352397 -3.635069 11.572497 -7.942785 -18.409108 -14.252185 6.319182 1.891216 6.487788 -16.011780 -2.792202 0.000009 -0.000004 -0.000003 0.000000 -0.000001 0.000002 -1.085953 -1.967654 -4.762811 0.102411 -0.985788 18.873122 -0.000005 0.000001 0.000010 -0.000000 0.000000 0.000001 -0.674382 -2.823632 14.030726 -0.183819 0.745696 17.598073 0.000002 -0.000003 -0.000011 0.000000 -0.000000 -0.000004 2.372977 -7.289317 23.053220 -0.422992 2.800611 24.424062 0.000001 0.000001 0.000010 0.000000 0.000001 -0.000003 3.423254 -9.923057 25.616433 -0.896299 7.054787 28.033873 0.000003 0.000004 0.000006 -0.000002 -0.000002 0.000005 -30.728813 9.513895 19.340843 29.244107 7.104328 -4.407530 2.478453 2.427998 -18.993504 0.342403 -0.038963 -1.245578 -0.000001 0.000001 -0.000001 -36.181886 -26.305055 -13.934727 61.101609 0.439106 -17.890675 -29.156527 4.721700 -0.165864 0.022622 0.014557 0.015956 -0.000000 0.000002 0.000000 
0.298579 80.008919 -91.620483 -4.966546 -38.781510 7.390295 5.523604 -1.324888 -1.761347 11.006953 -2.866887 -3.420353 11.006954 -2.866875 -3.420356 10.516871 8.167439 -4.991691 -20.369922 29.389747 -5.816825 -0.000000 0.000000 -0.000000 0.774858 -18.525877 -8.711188 -18.424094 9.451372 -28.304852 4.098679 -31.575842 -3.148594 13.751740 -4.485165 31.836669 4.513605 -3.634068 -7.521353 -0.335411 0.032537 0.783715 0.000002 0.000001 0.000000 0.000000 -0.000000 -0.000002 2.450403 14.406636 -33.400653 -2.354207 -3.554007 -28.778131 0.000002 -0.000001 -0.000002 -0.000001 0.000000 -0.000006 -0.319185 10.011581 -16.440603 -0.866631 -2.649882 -32.576164 0.000003 -0.000005 0.000003 -0.000000 -0.000000 0.000005 0.147385 0.967743 -8.282153 -0.213378 -0.925477 -15.633922 0.000008 -0.000004 0.000013 -0.000000 0.000000 0.000004 -0.995591 -10.625521 -3.603763 0.131989 1.199837 -13.055943 -0.000001 -0.000004 -0.000003 0.000001 0.000000 -0.000002 -0.675930 20.005412 10.150088 -6.048818 -3.663915 49.587570 19.047012 51.477493 -4.087900 11.653140 -7.963149 -18.271280 -14.514620 6.821708 2.033563 6.552778 -16.157593 -2.797516 0.000009 -0.000002 -0.000007 -0.000000 0.000000 -0.000004 -1.090261 -2.029048 -5.460762 0.095770 -0.971406 18.815559 -0.000004 0.000001 0.000010 -0.000001 -0.000001 0.000001 -0.664482 -2.864899 13.627459 -0.165836 0.685614 16.900803 0.000001 -0.000003 -0.000007 0.000000 -0.000001 -0.000004 2.388117 -7.328118 22.651236 -0.397528 2.745452 23.725441 -0.000002 -0.000002 0.000005 -0.000003 0.000001 0.000000 3.444451 -9.959274 25.221180 -0.870142 7.007577 27.332691 -0.000000 0.000004 0.000008 -0.000000 0.000002 0.000002 -32.874602 9.811584 18.778804 34.519660 5.174382 -5.361260 -0.075378 2.764045 -18.653445 -0.006634 0.018902 -1.507022 -0.000000 -0.000001 -0.000000 -37.363874 -26.390270 -13.055683 60.031168 0.099833 -17.452341 -27.639446 4.622383 -0.815791 0.023193 0.015109 0.016181 -0.000000 0.000004 0.000000 
